<?xml version="1.0" encoding="UTF-8" standalone="no"?>
<!DOCTYPE svg PUBLIC "-//W3C//DTD SVG 1.1//EN" "http://www.w3.org/Graphics/SVG/1.1/DTD/svg11.dtd">
<svg width="222px" height="61px" version="1.1" xmlns="http://www.w3.org/2000/svg" xmlns:xlink="http://www.w3.org/1999/xlink" xml:space="preserve" xmlns:serif="http://www.serif.com/" style="fill-rule:evenodd;clip-rule:evenodd;stroke-linejoin:round;stroke-miterlimit:2;">
    <g transform="matrix(1,0,0,1,-2087.36,-254.141)">
        <g transform="matrix(0.625,0,0,0.583333,1598,0)">
            <g transform="matrix(0.215608,0,0,0.215608,753.017,371.407)">
                <g transform="matrix(3.35324,0,0,3.59276,-995.181,-428.676)">
                    <g transform="matrix(90.743,0,0,90.743,498,267)">
                        <path d="M0.362,-0.589L0.206,-0.589L0.168,-0.421L0.323,-0.421L0.295,-0.297L0.14,-0.297L0.1,-0.123L0.256,-0.123L0.227,0.001L-0.057,-0L0.106,-0.713L0.39,-0.713L0.362,-0.589Z" style="fill:rgb(0,122,80);fill-rule:nonzero;"/>
                    </g>
                    <g transform="matrix(90.743,0,0,90.743,529.306,267)">
                        <path d="M-0.062,-0L0.1,-0.713L0.291,-0.713L0.283,-0.264L0.48,-0.713L0.673,-0.713L0.511,-0L0.382,-0L0.483,-0.443L0.278,-0L0.17,-0L0.166,-0.436L0.067,-0L-0.062,-0Z" style="fill:rgb(0,122,80);fill-rule:nonzero;"/>
                    </g>
                    <g transform="matrix(90.743,0,0,90.743,585.748,267)">
                        <path d="M0.117,-0.202L0.071,-0L-0.057,-0L0.103,-0.713L0.282,-0.713C0.29,-0.714 0.298,-0.713 0.306,-0.711C0.313,-0.71 0.321,-0.707 0.33,-0.704C0.338,-0.701 0.346,-0.696 0.354,-0.691C0.365,-0.682 0.374,-0.671 0.381,-0.656C0.388,-0.641 0.388,-0.62 0.383,-0.595L0.323,-0.326C0.318,-0.305 0.311,-0.288 0.302,-0.274C0.293,-0.26 0.282,-0.248 0.271,-0.239C0.259,-0.23 0.247,-0.223 0.235,-0.218C0.222,-0.213 0.211,-0.209 0.201,-0.207C0.191,-0.204 0.183,-0.203 0.176,-0.203C0.169,-0.202 0.166,-0.202 0.166,-0.202L0.117,-0.202ZM0.247,-0.56C0.248,-0.567 0.248,-0.573 0.247,-0.577C0.246,-0.581 0.244,-0.584 0.241,-0.586C0.238,-0.589 0.235,-0.59 0.231,-0.59L0.204,-0.59L0.145,-0.326L0.171,-0.326C0.176,-0.326 0.18,-0.327 0.183,-0.33C0.186,-0.331 0.19,-0.334 0.193,-0.338C0.196,-0.341 0.198,-0.346 0.2,-0.353L0.247,-0.56Z" style="fill:rgb(0,122,80);fill-rule:nonzero;"/>
                    </g>
                    <g transform="matrix(90.743,0,0,90.743,618.053,267)">
                        <path d="M0.107,-0.713L0.285,-0.713C0.294,-0.714 0.302,-0.713 0.31,-0.711C0.317,-0.71 0.325,-0.707 0.334,-0.704C0.342,-0.701 0.35,-0.696 0.358,-0.691C0.369,-0.682 0.378,-0.67 0.385,-0.654C0.392,-0.638 0.392,-0.617 0.386,-0.59L0.347,-0.422C0.344,-0.408 0.34,-0.395 0.333,-0.383C0.331,-0.378 0.329,-0.374 0.327,-0.371C0.324,-0.367 0.322,-0.363 0.319,-0.36C0.312,-0.351 0.305,-0.344 0.298,-0.338C0.29,-0.331 0.282,-0.326 0.274,-0.321C0.275,-0.32 0.276,-0.319 0.277,-0.319C0.278,-0.318 0.279,-0.317 0.28,-0.316C0.29,-0.307 0.298,-0.294 0.303,-0.279C0.308,-0.264 0.307,-0.244 0.302,-0.221L0.252,-0L0.123,-0L0.177,-0.242C0.179,-0.25 0.179,-0.256 0.178,-0.261C0.177,-0.265 0.175,-0.268 0.172,-0.27C0.169,-0.273 0.166,-0.274 0.162,-0.274L0.135,-0.274L0.073,-0L-0.056,-0L0.107,-0.713ZM0.169,-0.422L0.195,-0.422C0.199,-0.422 0.203,-0.423 0.206,-0.425C0.209,-0.426 0.213,-0.429 0.216,-0.432C0.219,-0.435 0.222,-0.44 0.224,-0.446C0.224,-0.447 0.225,-0.453 0.228,-0.464C0.231,-0.475 0.234,-0.488 0.237,-0.502C0.24,-0.515 0.243,-0.528 0.246,-0.539C0.249,-0.55 0.25,-0.556 0.25,-0.557C0.253,-0.572 0.251,-0.581 0.245,-0.586C0.242,-0.589 0.239,-0.59 0.234,-0.59L0.207,-0.59L0.169,-0.422Z" style="fill:rgb(0,122,80);fill-rule:nonzero;"/>
                    </g>
                    <g transform="matrix(90.743,0,0,90.743,650.448,267)">
                        <path d="M0.362,-0.589L0.206,-0.589L0.168,-0.421L0.323,-0.421L0.295,-0.297L0.14,-0.297L0.1,-0.123L0.256,-0.123L0.227,0.001L-0.057,-0L0.106,-0.713L0.39,-0.713L0.362,-0.589Z" style="fill:rgb(0,122,80);fill-rule:nonzero;"/>
                    </g>
                    <g transform="matrix(90.743,0,0,90.743,681.755,267)">
                        <path d="M0.136,-0.154C0.137,-0.158 0.139,-0.169 0.141,-0.186C0.142,-0.195 0.143,-0.206 0.143,-0.217C0.143,-0.228 0.142,-0.238 0.139,-0.248C0.138,-0.253 0.135,-0.26 0.132,-0.269C0.129,-0.278 0.125,-0.287 0.12,-0.297L0.12,-0.298C0.111,-0.316 0.102,-0.336 0.092,-0.358C0.081,-0.38 0.072,-0.401 0.065,-0.422C0.058,-0.439 0.055,-0.454 0.054,-0.466C0.051,-0.488 0.05,-0.509 0.051,-0.528C0.051,-0.533 0.051,-0.539 0.052,-0.544C0.052,-0.549 0.052,-0.553 0.053,-0.558C0.055,-0.576 0.057,-0.586 0.058,-0.589L0.058,-0.59C0.058,-0.591 0.06,-0.597 0.063,-0.606C0.066,-0.615 0.072,-0.626 0.079,-0.639C0.086,-0.651 0.096,-0.663 0.11,-0.676C0.123,-0.688 0.139,-0.697 0.158,-0.704C0.175,-0.71 0.193,-0.713 0.214,-0.713L0.264,-0.713C0.272,-0.713 0.28,-0.712 0.288,-0.71C0.295,-0.709 0.303,-0.707 0.312,-0.704C0.32,-0.701 0.328,-0.696 0.336,-0.691C0.347,-0.682 0.356,-0.669 0.363,-0.654C0.37,-0.638 0.37,-0.617 0.364,-0.59L0.35,-0.527L0.221,-0.527L0.228,-0.558C0.23,-0.566 0.23,-0.572 0.229,-0.577C0.227,-0.581 0.225,-0.584 0.223,-0.586C0.22,-0.588 0.218,-0.589 0.215,-0.59C0.212,-0.59 0.211,-0.59 0.211,-0.59C0.205,-0.59 0.2,-0.588 0.196,-0.586C0.192,-0.583 0.189,-0.579 0.187,-0.576C0.184,-0.572 0.182,-0.568 0.181,-0.565C0.18,-0.562 0.179,-0.559 0.179,-0.558L0.179,-0.557C0.178,-0.555 0.178,-0.552 0.177,-0.547C0.176,-0.542 0.176,-0.535 0.175,-0.527C0.174,-0.519 0.174,-0.51 0.175,-0.499C0.175,-0.488 0.176,-0.477 0.178,-0.466C0.181,-0.453 0.186,-0.439 0.193,-0.422C0.194,-0.42 0.195,-0.418 0.196,-0.415C0.203,-0.397 0.212,-0.378 0.221,-0.358C0.23,-0.337 0.239,-0.317 0.246,-0.298C0.249,-0.289 0.252,-0.28 0.255,-0.272C0.258,-0.263 0.26,-0.255 0.261,-0.248C0.265,-0.227 0.266,-0.207 0.265,-0.186C0.265,-0.18 0.265,-0.174 0.265,-0.169C0.264,-0.164 0.264,-0.159 0.263,-0.154C0.262,-0.147 0.261,-0.141 0.26,-0.136C0.259,-0.131 0.259,-0.127 0.258,-0.125L0.258,-0.124C0.254,-0.107 0.248,-0.092 0.241,-0.079C0.234,-0.066 0.225,-0.055 0.216,-0.047C0.207,-0.038 0.197,-0.03 0.187,-0.025C0.177,-0.019 0.167,-0.014 0.157,-0.011C0.15,-0.008 0.143,-0.005 0.136,-0.004C0.129,-0.003 0.123,-0.002 0.118,-0.001C0.112,-0 0.106,-0 0.101,-0L0.052,-0C0.043,-0 0.035,-0.001 0.027,-0.003C0.02,-0.004 0.012,-0.007 0.004,-0.01C-0.005,-0.012 -0.013,-0.017 -0.02,-0.023C-0.031,-0.032 -0.04,-0.044 -0.047,-0.06C-0.054,-0.076 -0.054,-0.097 -0.048,-0.124L-0.029,-0.206L0.099,-0.206L0.094,-0.186L0.087,-0.154C0.087,-0.153 0.087,-0.151 0.087,-0.148C0.086,-0.145 0.086,-0.141 0.087,-0.138C0.088,-0.134 0.089,-0.131 0.092,-0.128C0.095,-0.125 0.099,-0.124 0.105,-0.124C0.111,-0.124 0.116,-0.125 0.12,-0.128C0.123,-0.131 0.126,-0.134 0.129,-0.138C0.131,-0.141 0.133,-0.145 0.134,-0.148C0.135,-0.151 0.136,-0.153 0.136,-0.154Z" style="fill:rgb(0,122,80);fill-rule:nonzero;"/>
                    </g>
                    <g transform="matrix(90.743,0,0,90.743,711.337,267)">
                        <path d="M0.279,-0L0.15,-0L0.172,-0.124L0.098,-0.124L0.056,-0L-0.073,-0L0.083,-0.466C0.084,-0.468 0.087,-0.475 0.091,-0.486C0.094,-0.497 0.099,-0.511 0.106,-0.528C0.11,-0.537 0.114,-0.547 0.118,-0.558C0.121,-0.563 0.129,-0.585 0.132,-0.59C0.136,-0.599 0.14,-0.607 0.144,-0.616C0.148,-0.624 0.152,-0.632 0.156,-0.639C0.167,-0.66 0.177,-0.678 0.188,-0.692C0.199,-0.706 0.209,-0.713 0.218,-0.713L0.385,-0.713L0.279,-0ZM0.139,-0.248L0.193,-0.248L0.25,-0.578L0.139,-0.248Z" style="fill:rgb(0,122,80);fill-rule:nonzero;"/>
                    </g>
                    <g transform="matrix(90.743,0,0,90.743,744.095,267)">
                        <path d="M0.136,-0.154C0.137,-0.158 0.139,-0.169 0.141,-0.186C0.142,-0.195 0.143,-0.206 0.143,-0.217C0.143,-0.228 0.142,-0.238 0.139,-0.248C0.138,-0.253 0.135,-0.26 0.132,-0.269C0.129,-0.278 0.125,-0.287 0.12,-0.297L0.12,-0.298C0.111,-0.316 0.102,-0.336 0.092,-0.358C0.081,-0.38 0.072,-0.401 0.065,-0.422C0.058,-0.439 0.055,-0.454 0.054,-0.466C0.051,-0.488 0.05,-0.509 0.051,-0.528C0.051,-0.533 0.051,-0.539 0.052,-0.544C0.052,-0.549 0.052,-0.553 0.053,-0.558C0.055,-0.576 0.057,-0.586 0.058,-0.589L0.058,-0.59C0.058,-0.591 0.06,-0.597 0.063,-0.606C0.066,-0.615 0.072,-0.626 0.079,-0.639C0.086,-0.651 0.096,-0.663 0.11,-0.676C0.123,-0.688 0.139,-0.697 0.158,-0.704C0.175,-0.71 0.193,-0.713 0.214,-0.713L0.264,-0.713C0.272,-0.713 0.28,-0.712 0.288,-0.71C0.295,-0.709 0.303,-0.707 0.312,-0.704C0.32,-0.701 0.328,-0.696 0.336,-0.691C0.347,-0.682 0.356,-0.669 0.363,-0.654C0.37,-0.638 0.37,-0.617 0.364,-0.59L0.35,-0.527L0.221,-0.527L0.228,-0.558C0.23,-0.566 0.23,-0.572 0.229,-0.577C0.227,-0.581 0.225,-0.584 0.223,-0.586C0.22,-0.588 0.218,-0.589 0.215,-0.59C0.212,-0.59 0.211,-0.59 0.211,-0.59C0.205,-0.59 0.2,-0.588 0.196,-0.586C0.192,-0.583 0.189,-0.579 0.187,-0.576C0.184,-0.572 0.182,-0.568 0.181,-0.565C0.18,-0.562 0.179,-0.559 0.179,-0.558L0.179,-0.557C0.178,-0.555 0.178,-0.552 0.177,-0.547C0.176,-0.542 0.176,-0.535 0.175,-0.527C0.174,-0.519 0.174,-0.51 0.175,-0.499C0.175,-0.488 0.176,-0.477 0.178,-0.466C0.181,-0.453 0.186,-0.439 0.193,-0.422C0.194,-0.42 0.195,-0.418 0.196,-0.415C0.203,-0.397 0.212,-0.378 0.221,-0.358C0.23,-0.337 0.239,-0.317 0.246,-0.298C0.249,-0.289 0.252,-0.28 0.255,-0.272C0.258,-0.263 0.26,-0.255 0.261,-0.248C0.265,-0.227 0.266,-0.207 0.265,-0.186C0.265,-0.18 0.265,-0.174 0.265,-0.169C0.264,-0.164 0.264,-0.159 0.263,-0.154C0.262,-0.147 0.261,-0.141 0.26,-0.136C0.259,-0.131 0.259,-0.127 0.258,-0.125L0.258,-0.124C0.254,-0.107 0.248,-0.092 0.241,-0.079C0.234,-0.066 0.225,-0.055 0.216,-0.047C0.207,-0.038 0.197,-0.03 0.187,-0.025C0.177,-0.019 0.167,-0.014 0.157,-0.011C0.15,-0.008 0.143,-0.005 0.136,-0.004C0.129,-0.003 0.123,-0.002 0.118,-0.001C0.112,-0 0.106,-0 0.101,-0L0.052,-0C0.043,-0 0.035,-0.001 0.027,-0.003C0.02,-0.004 0.012,-0.007 0.004,-0.01C-0.005,-0.012 -0.013,-0.017 -0.02,-0.023C-0.031,-0.032 -0.04,-0.044 -0.047,-0.06C-0.054,-0.076 -0.054,-0.097 -0.048,-0.124L-0.029,-0.206L0.099,-0.206L0.094,-0.186L0.087,-0.154C0.087,-0.153 0.087,-0.151 0.087,-0.148C0.086,-0.145 0.086,-0.141 0.087,-0.138C0.088,-0.134 0.089,-0.131 0.092,-0.128C0.095,-0.125 0.099,-0.124 0.105,-0.124C0.111,-0.124 0.116,-0.125 0.12,-0.128C0.123,-0.131 0.126,-0.134 0.129,-0.138C0.131,-0.141 0.133,-0.145 0.134,-0.148C0.135,-0.151 0.136,-0.153 0.136,-0.154Z" style="fill:rgb(0,122,80);fill-rule:nonzero;"/>
                    </g>
                </g>
                <g transform="matrix(2.62357,0,0,2.81097,-657.054,29.1714)">
                    <g transform="matrix(90.743,0,0,90.743,498,267)">
                        <path d="M0.703,-0.502C0.703,-0.422 0.678,-0.363 0.628,-0.325C0.578,-0.287 0.5,-0.268 0.395,-0.268L0.318,-0.268L0.318,-0.125L0.421,-0.125L0.421,-0L0.033,-0L0.033,-0.125L0.126,-0.125L0.126,-0.611L0.033,-0.611L0.033,-0.736L0.391,-0.736C0.496,-0.736 0.575,-0.717 0.626,-0.678C0.677,-0.64 0.703,-0.581 0.703,-0.502ZM0.501,-0.502C0.501,-0.533 0.495,-0.556 0.482,-0.572C0.47,-0.588 0.452,-0.599 0.429,-0.604C0.406,-0.608 0.379,-0.611 0.348,-0.611L0.318,-0.611L0.318,-0.39L0.348,-0.39C0.389,-0.39 0.42,-0.394 0.443,-0.403C0.465,-0.411 0.48,-0.423 0.489,-0.439C0.497,-0.455 0.501,-0.476 0.501,-0.502Z" style="fill:rgb(0,122,80);fill-rule:nonzero;"/>
                    </g>
                    <g transform="matrix(90.743,0,0,90.743,563.62,267)">
                        <path d="M0.294,-0.611L0.401,-0.431L0.511,-0.611L0.435,-0.611L0.435,-0.736L0.76,-0.736L0.76,-0.611L0.669,-0.611L0.478,-0.323L0.478,-0.125L0.581,-0.125L0.581,-0L0.183,-0L0.183,-0.125L0.287,-0.125L0.287,-0.323L0.088,-0.611L-0.002,-0.611L-0.002,-0.736L0.365,-0.736L0.365,-0.611L0.294,-0.611Z" style="fill:rgb(0,122,80);fill-rule:nonzero;"/>
                    </g>
                    <g transform="matrix(90.743,0,0,90.743,632.298,267)">
                        <path d="M0.576,-0.44L0.576,-0.611L0.462,-0.611L0.462,-0.125L0.572,-0.125L0.572,-0L0.159,-0L0.159,-0.125L0.271,-0.125L0.271,-0.611L0.159,-0.611L0.159,-0.44L0.034,-0.44L0.034,-0.736L0.7,-0.736L0.7,-0.44L0.576,-0.44Z" style="fill:rgb(0,122,80);fill-rule:nonzero;"/>
                    </g>
                    <g transform="matrix(90.743,0,0,90.743,698.893,267)">
                        <path d="M0.312,-0.611L0.312,-0.451L0.513,-0.451L0.513,-0.611L0.438,-0.611L0.438,-0.736L0.791,-0.736L0.791,-0.611L0.699,-0.611L0.699,-0.125L0.791,-0.125L0.791,-0L0.438,-0L0.438,-0.125L0.513,-0.125L0.513,-0.325L0.312,-0.325L0.312,-0.125L0.389,-0.125L0.389,-0L0.034,-0L0.034,-0.125L0.126,-0.125L0.126,-0.611L0.034,-0.611L0.034,-0.736L0.389,-0.736L0.389,-0.611L0.312,-0.611Z" style="fill:rgb(0,122,80);fill-rule:nonzero;"/>
                    </g>
                    <g transform="matrix(90.743,0,0,90.743,771.248,267)">
                        <path d="M0.053,-0.37C0.053,-0.445 0.07,-0.51 0.104,-0.567C0.139,-0.624 0.187,-0.669 0.249,-0.7C0.311,-0.732 0.382,-0.748 0.463,-0.748C0.544,-0.748 0.615,-0.732 0.677,-0.7C0.738,-0.669 0.786,-0.624 0.82,-0.567C0.854,-0.51 0.871,-0.444 0.871,-0.37C0.871,-0.295 0.854,-0.229 0.82,-0.172C0.786,-0.115 0.738,-0.07 0.676,-0.039C0.614,-0.007 0.543,0.009 0.463,0.009C0.384,0.009 0.314,-0.007 0.252,-0.039C0.189,-0.07 0.141,-0.115 0.106,-0.172C0.071,-0.229 0.053,-0.295 0.053,-0.37ZM0.666,-0.371C0.666,-0.416 0.658,-0.456 0.642,-0.493C0.625,-0.53 0.602,-0.559 0.571,-0.58C0.54,-0.602 0.504,-0.613 0.463,-0.613C0.422,-0.613 0.386,-0.602 0.355,-0.58C0.324,-0.559 0.301,-0.53 0.284,-0.493C0.268,-0.456 0.26,-0.416 0.26,-0.371C0.26,-0.324 0.268,-0.282 0.285,-0.245C0.302,-0.208 0.325,-0.178 0.356,-0.157C0.387,-0.136 0.422,-0.125 0.462,-0.125C0.503,-0.125 0.539,-0.136 0.571,-0.157C0.602,-0.178 0.625,-0.208 0.642,-0.245C0.658,-0.282 0.666,-0.324 0.666,-0.371Z" style="fill:rgb(0,122,80);fill-rule:nonzero;"/>
                    </g>
                    <g transform="matrix(90.743,0,0,90.743,852.819,267)">
                        <path d="M0.609,-0.611L0.514,-0.611L0.514,-0.736L0.843,-0.736L0.843,-0.611L0.74,-0.611L0.74,0.005L0.577,0.005L0.259,-0.541L0.259,-0.125L0.351,-0.125L0.351,-0L0.029,-0L0.029,-0.125L0.128,-0.125L0.128,-0.611L0.029,-0.611L0.029,-0.736L0.338,-0.736L0.609,-0.276L0.609,-0.611Z" style="fill:rgb(0,122,80);fill-rule:nonzero;"/>
                    </g>
                </g>
                <g transform="matrix(1.1225,0,0,1.1225,6.95513,-49.9725)">
                    <g transform="matrix(16.7627,0,0,17.96,117.602,310.085)">
                        <path d="M11.727,0C10.76,0.001 9.813,0.086 8.893,0.248L8.991,0.234C6.568,0.662 6.129,1.558 6.129,3.21L6.129,5.392L11.855,5.392L11.855,6.119L3.981,6.119C3.961,6.119 3.938,6.118 3.915,6.118C2.178,6.118 0.731,7.357 0.408,8.999L0.404,9.022C0.148,9.894 0.001,10.896 0.001,11.932C0.001,12.968 0.148,13.97 0.423,14.917L0.404,14.841C0.811,16.536 1.783,17.743 3.444,17.743L5.413,17.743L5.413,15.127C5.458,13.174 7.035,11.604 8.987,11.57L14.709,11.57C16.293,11.557 17.572,10.271 17.572,8.685L17.572,8.659L17.572,8.66L17.572,3.208C17.468,1.647 16.258,0.398 14.724,0.233L14.71,0.232C13.844,0.083 12.847,-0.002 11.831,-0.002L11.724,-0.002L11.729,-0.002L11.727,0ZM8.631,1.755L8.648,1.755C9.251,1.755 9.739,2.244 9.739,2.846C9.739,3.448 9.25,3.937 8.648,3.937C8.047,3.937 7.559,3.45 7.557,2.849L7.557,2.841C7.557,2.245 8.037,1.761 8.631,1.755L8.632,1.755L8.631,1.755Z" style="fill:rgb(0,122,80);fill-rule:nonzero;"/>
                    </g>
                    <g transform="matrix(16.7627,0,0,17.96,117.602,310.085)">
                        <path d="M18.287,6.119L18.287,8.661C18.265,10.638 16.683,12.239 14.715,12.291L8.991,12.291C7.407,12.324 6.135,13.613 6.129,15.2L6.129,20.653C6.129,22.204 7.478,23.117 8.991,23.563C9.846,23.84 10.83,24 11.851,24C12.872,24 13.856,23.84 14.778,23.544L14.71,23.563C16.15,23.146 17.572,22.305 17.572,20.653L17.572,18.469L11.853,18.469L11.853,17.742L20.435,17.742C22.099,17.742 22.719,16.581 23.298,14.84C23.578,13.97 23.739,12.969 23.739,11.93C23.739,10.891 23.578,9.89 23.279,8.951L23.298,9.021C22.887,7.365 22.098,6.119 20.435,6.119L18.287,6.119ZM15.071,19.926L15.088,19.926C15.691,19.926 16.179,20.415 16.179,21.017C16.179,21.619 15.69,22.108 15.088,22.108C14.485,22.108 13.997,21.619 13.997,21.017L13.997,21.006C13.997,20.411 14.477,19.929 15.071,19.926Z" style="fill:rgb(0,122,80);fill-rule:nonzero;"/>
                    </g>
                </g>
            </g>
        </g>
    </g>
</svg>
